<?xml version="1.0" encoding="UTF-8" standalone="no"?>
<svg
   xmlns:dc="http://purl.org/dc/elements/1.1/"
   xmlns:cc="http://creativecommons.org/ns#"
   xmlns:rdf="http://www.w3.org/1999/02/22-rdf-syntax-ns#"
   xmlns:svg="http://www.w3.org/2000/svg"
   xmlns="http://www.w3.org/2000/svg"
   xmlns:sodipodi="http://sodipodi.sourceforge.net/DTD/sodipodi-0.dtd"
   xmlns:inkscape="http://www.inkscape.org/namespaces/inkscape"
   version="1.1"
   x="0px"
   y="0px"
   width="86px"
   height="86px"
   viewBox="0 0 86 86"
   enable-background="new 0 0 86 86"
   xml:space="preserve"
   id="svg19"
   sodipodi:docname="harbour-audiothek.svg"
   inkscape:version="1.0.2 (e86c870879, 2021-01-15)"><metadata
   id="metadata25"><rdf:RDF><cc:Work
       rdf:about=""><dc:format>image/svg+xml</dc:format><dc:type
         rdf:resource="http://purl.org/dc/dcmitype/StillImage" /></cc:Work></rdf:RDF></metadata><defs
   id="defs23">
	<linearGradient
   id="SVGID_1_"
   gradientUnits="userSpaceOnUse"
   x1="79.2383"
   y1="91.3279"
   x2="6.7619"
   y2="18.8514">
		<stop
   offset="0"
   style="stop-color:#ff80ab;stop-opacity:1"
   id="stop3" />
		<stop
   offset="0.9951"
   style="stop-color:#c51162;stop-opacity:1"
   id="stop5" />
	</linearGradient>
	
	
	
	
</defs><sodipodi:namedview
   pagecolor="#ffffff"
   bordercolor="#666666"
   borderopacity="1"
   objecttolerance="10"
   gridtolerance="10"
   guidetolerance="10"
   inkscape:pageopacity="0"
   inkscape:pageshadow="2"
   inkscape:window-width="1920"
   inkscape:window-height="1005"
   id="namedview21"
   showgrid="false"
   inkscape:zoom="1.7348783"
   inkscape:cx="-118.85095"
   inkscape:cy="85.626009"
   inkscape:window-x="0"
   inkscape:window-y="0"
   inkscape:window-maximized="1"
   inkscape:current-layer="svg19"
   inkscape:document-rotation="0" />
<g
   id="Layer_2"
   display="none">
</g>
<path
   fill="url(#SVGID_1_)"
   d="M 43,0.3 C 19.417,0.3 0.3,19.418 0.3,43 c 0,0.408 0,41.277 0,41.277 0,0.786 0.637,1.423 1.423,1.423 h 82.553 c 0.786,0 1.423,-0.637 1.423,-1.423 0,0 0,-40.908 0,-41.277 C 85.7,19.418 66.583,0.3 43,0.3 Z"
   id="path8"
   style="fill:url(#SVGID_1_)" />
<path
   fill="url(#SVGID_1_)"
   d="M 43.000375,10.999624 C 25.326725,10.999624 11,25.327099 11,42.999999 c 0,0.305765 0,30.933945 0,30.933945 0,0.589047 0.477383,1.06643 1.066429,1.06643 h 61.867142 c 0.589047,0 1.066429,-0.477383 1.066429,-1.06643 0,0 0,-30.657408 0,-30.933945 7.5e-4,-17.6729 -14.325975,-32.000375 -31.999625,-32.000375 z"
   id="path858"
   style="fill:#ffffff;fill-opacity:0.25;stroke-width:1" /><rect
   style="fill:#ffffff;fill-opacity:1;stroke:none;stroke-width:0.999997;stroke-linecap:round;stroke-linejoin:round"
   id="rect921"
   width="8"
   height="4"
   x="12"
   y="71.000374"
   rx="0.98014933"
   ry="1" /><rect
   style="fill:#ffffff;fill-opacity:1;stroke:none;stroke-width:0.999997;stroke-linecap:round;stroke-linejoin:round"
   id="rect925"
   width="8"
   height="4"
   x="21"
   y="71.000374"
   rx="0.98014933"
   ry="1" /><rect
   style="fill:#ffffff;fill-opacity:1;stroke:none;stroke-width:0.999997;stroke-linecap:round;stroke-linejoin:round"
   id="rect927"
   width="8"
   height="4"
   x="30"
   y="71.000374"
   rx="0.98014933"
   ry="1" /><rect
   style="fill:#ffffff;fill-opacity:1;stroke:none;stroke-width:0.999997;stroke-linecap:round;stroke-linejoin:round"
   id="rect929"
   width="8"
   height="4"
   x="39"
   y="71.000374"
   rx="0.98014933"
   ry="1" /><rect
   style="fill:#ffffff;fill-opacity:1;stroke:none;stroke-width:0.999997;stroke-linecap:round;stroke-linejoin:round"
   id="rect931"
   width="8"
   height="4"
   x="48"
   y="71.000374"
   rx="0.98014933"
   ry="1" /><rect
   style="fill:#ffffff;fill-opacity:1;stroke:none;stroke-width:0.999997;stroke-linecap:round;stroke-linejoin:round"
   id="rect933"
   width="8"
   height="4"
   x="57"
   y="71.000374"
   rx="0.98014933"
   ry="1" /><rect
   style="fill:#ffffff;fill-opacity:1;stroke:none;stroke-width:0.999997;stroke-linecap:round;stroke-linejoin:round"
   id="rect935"
   width="8"
   height="4"
   x="66"
   y="71.000374"
   rx="0.98014933"
   ry="1" /><rect
   style="fill:#ffffff;fill-opacity:1;stroke:none;stroke-width:0.999997;stroke-linecap:round;stroke-linejoin:round"
   id="rect946"
   width="8"
   height="4"
   x="12"
   y="66"
   rx="0.98014933"
   ry="1" /><rect
   style="fill:#ffffff;fill-opacity:1;stroke:none;stroke-width:0.999997;stroke-linecap:round;stroke-linejoin:round"
   id="rect948"
   width="8"
   height="4"
   x="21"
   y="66"
   rx="0.98014933"
   ry="1" /><rect
   style="fill:#ffffff;fill-opacity:1;stroke:none;stroke-width:0.999997;stroke-linecap:round;stroke-linejoin:round"
   id="rect950"
   width="8"
   height="4"
   x="30"
   y="66"
   rx="0.98014933"
   ry="1" /><rect
   style="fill:#ffffff;fill-opacity:1;stroke:none;stroke-width:0.999997;stroke-linecap:round;stroke-linejoin:round"
   id="rect952"
   width="8"
   height="4"
   x="39"
   y="66"
   rx="0.98014933"
   ry="1" /><rect
   style="fill:#ffffff;fill-opacity:1;stroke:none;stroke-width:0.999997;stroke-linecap:round;stroke-linejoin:round"
   id="rect954"
   width="8"
   height="4"
   x="48"
   y="66"
   rx="0.98014933"
   ry="1" /><rect
   style="fill:#ffffff;fill-opacity:1;stroke:none;stroke-width:0.999997;stroke-linecap:round;stroke-linejoin:round"
   id="rect956"
   width="8"
   height="4"
   x="57"
   y="66"
   rx="0.98014933"
   ry="1" /><rect
   style="fill:#ffffff;fill-opacity:1;stroke:none;stroke-width:0.999997;stroke-linecap:round;stroke-linejoin:round"
   id="rect958"
   width="8"
   height="4"
   x="66"
   y="66"
   rx="0.98014933"
   ry="1" /><rect
   style="fill:#ffffff;fill-opacity:1;stroke:none;stroke-width:0.999997;stroke-linecap:round;stroke-linejoin:round"
   id="rect962"
   width="8"
   height="4"
   x="12"
   y="61"
   rx="0.98014933"
   ry="1" /><rect
   style="fill:#ffffff;fill-opacity:1;stroke:none;stroke-width:0.999997;stroke-linecap:round;stroke-linejoin:round"
   id="rect964"
   width="8"
   height="4"
   x="21"
   y="61"
   rx="0.98014933"
   ry="1" /><rect
   style="fill:#ffffff;fill-opacity:1;stroke:none;stroke-width:0.999997;stroke-linecap:round;stroke-linejoin:round"
   id="rect966"
   width="8"
   height="4"
   x="30"
   y="61"
   rx="0.98014933"
   ry="1" /><rect
   style="fill:#ffffff;fill-opacity:1;stroke:none;stroke-width:0.999997;stroke-linecap:round;stroke-linejoin:round"
   id="rect968"
   width="8"
   height="4"
   x="39"
   y="61"
   rx="0.98014933"
   ry="1" /><rect
   style="fill:#ffffff;fill-opacity:1;stroke:none;stroke-width:0.999997;stroke-linecap:round;stroke-linejoin:round"
   id="rect970"
   width="8"
   height="4"
   x="48"
   y="61"
   rx="0.98014933"
   ry="1" /><rect
   style="fill:#ffffff;fill-opacity:1;stroke:none;stroke-width:0.999997;stroke-linecap:round;stroke-linejoin:round"
   id="rect972"
   width="8"
   height="4"
   x="57"
   y="61"
   rx="0.98014933"
   ry="1" /><rect
   style="fill:#ffffff;fill-opacity:1;stroke:none;stroke-width:0.999997;stroke-linecap:round;stroke-linejoin:round"
   id="rect974"
   width="8"
   height="4"
   x="66"
   y="61"
   rx="0.98014933"
   ry="1" /><rect
   style="fill:#ffffff;fill-opacity:1;stroke:none;stroke-width:0.999997;stroke-linecap:round;stroke-linejoin:round"
   id="rect978"
   width="8"
   height="4"
   x="12"
   y="56"
   rx="0.98014933"
   ry="1" /><rect
   style="fill:#ffffff;fill-opacity:1;stroke:none;stroke-width:0.999997;stroke-linecap:round;stroke-linejoin:round"
   id="rect982"
   width="8"
   height="4"
   x="30"
   y="56"
   rx="0.98014933"
   ry="1" /><rect
   style="fill:#ffffff;fill-opacity:1;stroke:none;stroke-width:0.999997;stroke-linecap:round;stroke-linejoin:round"
   id="rect984"
   width="8"
   height="4"
   x="39"
   y="56"
   rx="0.98014933"
   ry="1" /><rect
   style="fill:#ffffff;fill-opacity:1;stroke:none;stroke-width:0.999997;stroke-linecap:round;stroke-linejoin:round"
   id="rect986"
   width="8"
   height="4"
   x="48"
   y="56"
   rx="0.98014933"
   ry="1" /><rect
   style="fill:#ffffff;fill-opacity:1;stroke:none;stroke-width:0.999997;stroke-linecap:round;stroke-linejoin:round"
   id="rect988"
   width="8"
   height="4"
   x="57"
   y="56"
   rx="0.98014933"
   ry="1" /><rect
   style="fill:#ffffff;fill-opacity:1;stroke:none;stroke-width:0.999997;stroke-linecap:round;stroke-linejoin:round"
   id="rect994"
   width="8"
   height="4"
   x="12"
   y="51"
   rx="0.98014933"
   ry="1" /><rect
   style="fill:#ffffff;fill-opacity:1;stroke:none;stroke-width:0.999997;stroke-linecap:round;stroke-linejoin:round"
   id="rect998"
   width="8"
   height="4"
   x="30"
   y="51"
   rx="0.98014933"
   ry="1" /><rect
   style="fill:#ffffff;fill-opacity:1;stroke:none;stroke-width:0.999997;stroke-linecap:round;stroke-linejoin:round"
   id="rect1000"
   width="8"
   height="4"
   x="39"
   y="51"
   rx="0.98014933"
   ry="1" /><rect
   style="fill:#ffffff;fill-opacity:1;stroke:none;stroke-width:0.999997;stroke-linecap:round;stroke-linejoin:round"
   id="rect1002"
   width="8"
   height="4"
   x="48"
   y="51"
   rx="0.98014933"
   ry="1" /><rect
   style="fill:#ffffff;fill-opacity:1;stroke:none;stroke-width:0.999997;stroke-linecap:round;stroke-linejoin:round"
   id="rect1004"
   width="8"
   height="4"
   x="57"
   y="51"
   rx="0.98014933"
   ry="1" /><rect
   style="fill:#ffffff;fill-opacity:1;stroke:none;stroke-width:0.999997;stroke-linecap:round;stroke-linejoin:round"
   id="rect1010"
   width="8"
   height="4"
   x="12"
   y="46"
   rx="0.98014933"
   ry="1" /><rect
   style="fill:#ffffff;fill-opacity:1;stroke:none;stroke-width:0.999997;stroke-linecap:round;stroke-linejoin:round"
   id="rect1014"
   width="8"
   height="4"
   x="30"
   y="46"
   rx="0.98014933"
   ry="1" /><rect
   style="fill:#ffffff;fill-opacity:1;stroke:none;stroke-width:0.999997;stroke-linecap:round;stroke-linejoin:round"
   id="rect1016"
   width="8"
   height="4"
   x="39"
   y="46"
   rx="0.98014933"
   ry="1" /><rect
   style="fill:#ffffff;fill-opacity:1;stroke:none;stroke-width:0.999997;stroke-linecap:round;stroke-linejoin:round"
   id="rect1020"
   width="8"
   height="4"
   x="57"
   y="46"
   rx="0.98014933"
   ry="1" /><rect
   style="fill:#ffffff;fill-opacity:1;stroke:none;stroke-width:0.999997;stroke-linecap:round;stroke-linejoin:round"
   id="rect1030"
   width="8"
   height="4"
   x="30"
   y="41"
   rx="0.98014933"
   ry="1" /><rect
   style="fill:#ffffff;fill-opacity:1;stroke:none;stroke-width:0.999997;stroke-linecap:round;stroke-linejoin:round"
   id="rect1032"
   width="8"
   height="4"
   x="39"
   y="41"
   rx="0.98014933"
   ry="1" /><rect
   style="fill:#ffffff;fill-opacity:1;stroke:none;stroke-width:0.999997;stroke-linecap:round;stroke-linejoin:round"
   id="rect1036"
   width="8"
   height="4"
   x="57"
   y="41"
   rx="0.98014933"
   ry="1" /><rect
   style="fill:#ffffff;fill-opacity:1;stroke:none;stroke-width:0.999997;stroke-linecap:round;stroke-linejoin:round"
   id="rect1048"
   width="8"
   height="4"
   x="39"
   y="36"
   rx="0.98014933"
   ry="1" /><rect
   style="fill:#ffffff;fill-opacity:1;stroke:none;stroke-width:0.999997;stroke-linecap:round;stroke-linejoin:round"
   id="rect1064"
   width="8"
   height="4"
   x="39"
   y="31"
   rx="0.98014933"
   ry="1" /><rect
   style="fill:#ffffff;fill-opacity:1;stroke:none;stroke-width:0.999997;stroke-linecap:round;stroke-linejoin:round"
   id="rect1080"
   width="8"
   height="4"
   x="39"
   y="26"
   rx="0.98014933"
   ry="1" /></svg>
